#!OML:ASF E:\inclinewalkrobotboard\Project 1\Capture day 1\Session 1\subject1.ASF
:FULLY-SPECIFIED
:DEGREES
115
root 7.62366 11.1821 8.75196 -158.728 -53.9851 159.128
lowerback 19.7163 2.62809 -5.4186
upperback 2.33851 2.36494 3.27028
thorax -8.87575 1.28994 6.06781
lowerneck -3.80145 5.58917 0.253259
upperneck -23.3975 4.74541 -8.18394
head -6.24506 2.21259 -2.79254
rclavicle -6.36111e-014 1.90833e-014
rhumerus -17.983 -35.8125 -76.7707
rradius 53.5823
rwrist -44.2461
rhand 8.15165 -23.5511
rfingers 7.12502
rthumb 33.3712 -50.4723
lclavicle -6.36111e-014 1.90833e-014
lhumerus 17.6589 19.4384 53.6883
lradius 126.786
lwrist -32.3308
lhand -47.0419 -38.5748
lfingers 7.12502
lthumb -19.7475 -9.55787
rfemur -61.1167 -15.364 -12.2237
rtibia 83.86
rfoot 144.111 7.599
rtoes -40.6482
lfemur -49.6715 -3.88926 -26.1493
ltibia 74.5913
lfoot 0 0
ltoes 0
116
root 7.62493 11.1844 8.74527 -158.728 -53.9785 159.152
lowerback 19.7277 2.58143 -5.39122
upperback 2.29766 2.31107 3.2718
thorax -8.91807 1.26659 6.06872
lowerneck -3.75204 5.62539 0.283048
upperneck -23.3545 4.79936 -8.21228
head -6.23496 2.24104 -2.80866
rclavicle 3.18055e-014 9.54166e-015
rhumerus -17.9511 -35.6052 -76.9243
rradius 53.7441
rwrist -44.1404
rhand 7.76833 -23.4308
rfingers 7.12502
rthumb 33.0067 -50.4296
lclavicle 3.18055e-014 9.54166e-015
lhumerus 17.6481 19.6077 53.5868
lradius 126.705
lwrist -32.007
lhand -46.6555 -38.8638
lfingers 7.12502
lthumb -19.376 -9.80911
rfemur -61.1483 -15.3549 -12.1706
rtibia 83.8551
rfoot 144.107 7.60173
rtoes -40.7276
lfemur -49.6568 -4.12048 -25.9701
ltibia 74.5103
lfoot 0 0
ltoes 0
117
root 7.62818 11.1894 8.74254 -158.701 -53.8833 159.204
lowerback 19.7212 2.59807 -5.42166
upperback 2.24585 2.3318 3.28751
thorax -8.97697 1.28278 6.09822
lowerneck -3.74014 5.64795 0.330655
upperneck -23.2839 4.82164 -8.31966
head -6.20769 2.2567 -2.8502
rclavicle 2.8625e-014 3.18055e-014
rhumerus -17.8885 -35.4281 -76.9938
rradius 53.8497
rwrist -44.1855
rhand 7.69844 -23.3003
rfingers 7.12502
rthumb 32.9403 -50.3131
lclavicle 2.8625e-014 3.18055e-014
lhumerus 17.7216 19.8171 53.649
lradius 126.625
lwrist -31.7399
lhand -46.081 -39.4622
lfingers 7.12502
lthumb -18.8236 -10.353
rfemur -61.2681 -15.2583 -12.1243
rtibia 83.8723
rfoot 144.091 7.54681
rtoes -40.6543
lfemur -49.7041 -4.18575 -25.8871
ltibia 74.4858
lfoot 0 0
ltoes 0
118
root 7.63136 11.1953 8.73948 -158.729 -53.7507 159.235
lowerback 19.7962 2.641 -5.45507
upperback 2.20876 2.37759 3.26494
thorax -9.06633 1.31002 6.07906
lowerneck -3.64265 5.66217 0.448918
upperneck -23.3059 4.82452 -8.43429
head -6.22262 2.25957 -2.91
rclavicle -1.74931e-014 4.45278e-014
rhumerus -17.7611 -35.3299 -77.0817
rradius 53.7773
rwrist -44.3285
rhand 8.05558 -23.1454
rfingers 7.12502
rthumb 33.2799 -50.0861
lclavicle -1.74931e-014 4.45278e-014
lhumerus 17.8374 19.893 53.7291
lradius 126.571
lwrist -31.6919
lhand -45.8191 -39.773
lfingers 7.12502
lthumb -18.5717 -10.6396
rfemur -61.3273 -15.1203 -12.1184
rtibia 83.907
rfoot 144.098 7.36217
rtoes -40.2554
lfemur -49.6528 -4.05102 -25.9829
ltibia 74.5969
lfoot 0 0
ltoes 0
119
root 7.63191 11.1952 8.73096 -158.907 -53.7431 159.304
lowerback 19.8752 2.6323 -5.51808
upperback 2.24797 2.34806 3.30854
thorax -9.06637 1.29617 6.17258
lowerneck -3.67161 5.70424 0.50574
upperneck -23.2452 4.88215 -8.48474
head -6.19151 2.2858 -2.93499
rclavicle -5.32743e-014 6.36111e-015
rhumerus -17.4814 -35.1158 -77.2271
rradius 53.6206
rwrist -44.5426
rhand 8.30408 -22.9893
rfingers 7.12502
rthumb 33.5161 -49.8792
lclavicle -5.32743e-014 6.36111e-015
lhumerus 17.788 19.9501 53.7086
lradius 126.587
lwrist -31.7851
lhand -45.9304 -39.9153
lfingers 7.12502
lthumb -18.6787 -10.7921
rfemur -61.2273 -15.0855 -12.0578
rtibia 83.9257
rfoot 144.116 7.31352
rtoes -40.2879
lfemur -49.4875 -3.98596 -25.9864
ltibia 74.6786
lfoot 0 0
ltoes 0
120
root 7.63256 11.1937 8.72235 -159.074 -53.7173 159.404
lowerback 19.9043 2.63752 -5.55821
upperback 2.29267 2.34389 3.34356
thorax -9.0354 1.29241 6.23625
lowerneck -3.83145 5.74095 0.428391
upperneck -23.0756 4.97185 -8.3669
head -6.11298 2.32549 -2.87837
rclavicle -5.80451e-014 2.22639e-014
rhumerus -17.2368 -34.9786 -77.4006
rradius 53.5761
rwrist -44.6221
rhand 8.24172 -22.8242
rfingers 7.12502
rthumb 33.4568 -49.7269
lclavicle -5.80451e-014 2.22639e-014
lhumerus 17.7105 19.9901 53.6171
lradius 126.654
lwrist -31.8227
lhand -46.0158 -40.0541
lfingers 7.12502
lthumb -18.7609 -10.9388
rfemur -61.1826 -15.0434 -11.9696
rtibia 83.9085
rfoot 144.074 7.34275
rtoes -40.3887
lfemur -49.3558 -4.04267 -25.804
ltibia 74.6379
lfoot 0 0
ltoes 0
121
root 7.6367 11.1979 8.71965 -159.161 -53.625 159.55
lowerback 19.9449 2.65332 -5.47084
upperback 2.26672 2.37982 3.30796
thorax -9.08653 1.30832 6.13505
lowerneck -3.90465 5.75551 0.400647
upperneck -22.9674 5.03246 -8.22832
head -6.0691 2.3489 -2.82671
rclavicle -1.19271e-013 2.54444e-014
rhumerus -17.0854 -35.0029 -77.6198
rradius 53.6513
rwrist -44.4509
rhand 8.2355 -22.7602
rfingers 7.12502
rthumb 33.4509 -49.6642
lclavicle -1.19271e-013 2.54444e-014
lhumerus 17.7251 20.0432 53.4654
lradius 126.659
lwrist -31.8193
lhand -46.0556 -40.1055
lfingers 7.12502
lthumb -18.7992 -10.9939
rfemur -61.2711 -14.9051 -11.8665
rtibia 83.8876
rfoot 143.982 7.07252
rtoes -39.5984
lfemur -49.3749 -3.98411 -25.7041
ltibia 74.6247
lfoot 0 0
ltoes 0
122
root 7.64307 11.2044 8.71934 -159.255 -53.55 159.719
lowerback 20.0679 2.65073 -5.34263
upperback 2.19878 2.39863 3.2779
thorax -9.22521 1.3189 6.02074
lowerneck -3.96968 5.75239 0.392559
upperneck -22.8484 5.05821 -8.14711
head -6.02201 2.35752 -2.79547
rclavicle -2.94201e-014 -2.8625e-014
rhumerus -17.0396 -34.9558 -77.7872
rradius 53.8189
rwrist -44.2779
rhand 8.28647 -22.5731
rfingers 7.12502
rthumb 33.4994 -49.4666
lclavicle -2.94201e-014 -2.8625e-014
lhumerus 17.7084 20.2075 53.3026
lradius 126.623
lwrist -31.8061
lhand -45.9417 -40.2554
lfingers 7.12502
lthumb -18.6896 -11.1332
rfemur -61.3531 -14.7472 -11.7448
rtibia 83.8694
rfoot 143.931 6.8959
rtoes -39.246
lfemur -49.4464 -3.79257 -25.7585
ltibia 74.6735
lfoot 0 0
ltoes 0
123
root 7.64771 11.2051 8.71538 -159.328 -53.5124 159.739
lowerback 20.2199 2.65927 -5.33538
upperback 2.18763 2.40354 3.28622
thorax -9.3216 1.32353 6.02364
lowerneck -4.09361 5.73136 0.215297
upperneck -22.7405 5.05534 -8.02684
head -5.97794 2.35977 -2.72152
rclavicle 2.14687e-014 3.81667e-014
rhumerus -17.008 -34.8591 -77.867
rradius 54.059
rwrist -44.2357
rhand 8.21447 -22.4646
rfingers 7.12502
rthumb 33.4309 -49.3729
lclavicle 2.14687e-014 3.81667e-014
lhumerus 17.6304 20.3549 53.1713
lradius 126.654
lwrist -31.7929
lhand -45.7823 -40.2246
lfingers 7.12502
lthumb -18.5363 -11.0878
rfemur -61.3286 -14.6673 -11.7143
rtibia 83.8494
rfoot 143.946 7.22098
rtoes -40.3165
lfemur -49.3998 -3.68546 -25.8303
ltibia 74.6892
lfoot 0 0
ltoes 0
